Release name                             : Game.of.Werewolves.2011.BDRip.XviD-RedBlade
Poster                                   : http://www.shotpix.com/images/96590515305051932794.jpg

General
Name                                     : Game.of.Werewolves.2011.BDRip.XviD-RedBlade
Format                                   : AVI
Format/Info                              : Audio Video Interleave
File size                                : 700 MiB
Duration                                 : 1h 41mn
Overall bit rate mode                    : Variable
Overall bit rate                         : 962 Kbps

Video
ID                                       : 0
Format                                   : MPEG-4 Visual
Format profile                           : Advanced Simple@L5
Format settings, BVOP                    : 2
Format settings, QPel                    : No
Format settings, GMC                     : No warppoints
Format settings, Matrix                  : Default (H.263)
Muxing mode                              : Packed bitstream
Codec ID                                 : XVID
Codec ID/Hint                            : XviD
Duration                                 : 1h 41mn
Bit rate                                 : 833 Kbps
Width                                    : 640 pixels
Height                                   : 272 pixels
Display aspect ratio                     : 2.35:1
Frame rate                               : 24.000 fps
Color space                              : YUV
Chroma subsampling                       : 4:2:0
Bit depth                                : 8 bits
Scan type                                : Progressive
Compression mode                         : Lossy
Bits/(Pixel*Frame)                       : 0.199
Stream size                              : 606 MiB (87%)
Writing library                          : XviD 1.2.1 (UTC 2008-12-04)

Audio
ID                                       : 1
Format                                   : MPEG Audio
Format version                           : Version 1
Format profile                           : Layer 3
Mode                                     : Joint stereo
Mode extension                           : MS Stereo
Codec ID                                 : 55
Codec ID/Hint                            : MP3
Duration                                 : 1h 41mn
Bit rate mode                            : Variable
Bit rate                                 : 115 Kbps
Nominal bit rate                         : 128 Kbps
Channel(s)                               : 2 channels
Sampling rate                            : 48.0 KHz
Compression mode                         : Lossy
Stream size                              : 84.3 MiB (12%)
Alignment                                : Aligned on interleaves
Interleave, duration                     : 24 ms (0.58 video frame)
Interleave, preload duration             : 190 ms
Title                                    : F1_T3_Audio - Spanish_new
Writing library                          : LAME3.99r

Language                                 : Spanish
Subtitles                                : English

IMDB: http://www.imdb.com/title/tt1650555/

Cast: Gorka Otxoa, Carlos Areces and Secun de la Rosa

Plot: After 15 years, Tomas, a not very succesfull writer, comes back to the village in Galicia where his family comes from, Arga, apparently to get an award. But he doesn't know  the real reason why he is there, to end with an old curse that is been haunting the village for the last hundred years.


Screens: 
 
http://www.shotpix.com/images/81872617897422968681.jpg
 
http://www.shotpix.com/images/82285373007499180267.jpg
 
http://www.shotpix.com/images/45167515978516770423.jpg
 
http://www.shotpix.com/images/33081281486697251983.jpg
 
http://www.shotpix.com/images/02726112624453610909.jpg
